<?xml version="1.0" encoding="UTF-8"?>
<svg id="Layer_1" data-name="Layer 1" xmlns="http://www.w3.org/2000/svg" viewBox="0 0 936.09 299.26">
  <defs>
    <style>
      .cls-1 {
        fill: #428dff;
      }
    </style>
  </defs>
  <g>
    <path d="M298.51,121.6v7.49h-36.19v16.3h22.77v7.49h-22.77v18.41h36.19v7.49h-44.69v-57.17h44.69Z"/>
    <path d="M354.51,130.02c3.74,5.62,5.62,12.35,5.62,20.2s-1.87,14.57-5.62,20.16c-3.74,5.59-10.19,8.38-19.34,8.38h-25.5v-57.17h25.5c9.15,0,15.6,2.81,19.34,8.42ZM332.83,171.28c3.38,0,6.37-.51,8.97-1.52,2.6-1.01,4.77-3.07,6.51-6.16,1.74-3.09,2.61-7.55,2.61-13.38s-.87-10.29-2.61-13.42c-1.74-3.12-3.91-5.19-6.51-6.2-2.6-1.01-5.59-1.52-8.97-1.52h-14.66v42.19h14.66Z"/>
    <path d="M382.04,176.93c-3.48-1.84-6.07-4.39-7.76-7.64-1.69-3.25-2.54-6.98-2.54-11.19v-36.5h8.81v35.8c0,4.11,1.03,7.57,3.08,10.37,2.05,2.81,5.84,4.21,11.35,4.21s9.31-1.4,11.39-4.21c2.08-2.81,3.12-6.27,3.12-10.37v-35.8h8.81v36.5c0,4.21-.85,7.94-2.53,11.19-1.69,3.25-4.29,5.8-7.8,7.64-3.51,1.85-7.84,2.77-12.99,2.77s-9.46-.92-12.95-2.77Z"/>
    <path class="cls-1" d="M472.51,145.39v-23.79h8.5v57.17h-8.5v-25.89h-30.88v25.89h-8.5v-57.17h8.5v23.79h30.88Z"/>
    <path class="cls-1" d="M506.04,176.93c-3.48-1.84-6.07-4.39-7.76-7.64-1.69-3.25-2.54-6.98-2.54-11.19v-36.5h8.81v35.8c0,4.11,1.03,7.57,3.08,10.37,2.05,2.81,5.84,4.21,11.35,4.21s9.31-1.4,11.39-4.21c2.08-2.81,3.12-6.27,3.12-10.37v-35.8h8.81v36.5c0,4.21-.85,7.94-2.53,11.19-1.69,3.25-4.29,5.8-7.8,7.64-3.51,1.85-7.84,2.77-12.99,2.77s-9.46-.92-12.95-2.77Z"/>
    <path class="cls-1" d="M603.84,153.58c1.87,2.18,2.81,5.02,2.81,8.5,0,11.13-6.34,16.69-19.03,16.69h-31.12v-57.17h28.23c6.55,0,11.58,1.11,15.09,3.31,3.51,2.21,5.26,6.04,5.26,11.5,0,2.5-.68,4.98-2.03,7.45-1.35,2.47-3.46,4.17-6.32,5.11,2.86.88,5.23,2.42,7.1,4.6ZM565,129.09v16.3h19.73c4.52,0,7.5-.73,8.93-2.18,1.43-1.46,2.15-3.43,2.15-5.93,0-2.29-.55-4.02-1.64-5.19-1.09-1.17-2.39-1.92-3.9-2.26-1.51-.34-3.35-.56-5.54-.66-1.09-.05-7.67-.08-19.73-.08ZM583.33,171.28c2.75,0,5.08-.16,6.98-.47,1.9-.31,3.54-1.14,4.91-2.5,1.38-1.35,2.07-3.43,2.07-6.24s-.68-4.89-2.03-6.24c-1.35-1.35-2.88-2.18-4.6-2.5s-3.69-.47-5.93-.47h-19.73v18.41h18.33Z"/>
    <path d="M621.35,176.08c-4.03-2.42-6.93-5.34-8.7-8.77l7.1-5.38c3.28,6.66,9.41,9.98,18.41,9.98,3.59,0,6.64-.65,9.16-1.95,2.52-1.3,3.78-3.38,3.78-6.24,0-2.13-.71-3.79-2.14-4.99-1.43-1.2-3.63-2.26-6.59-3.2-2.7-.83-4.39-1.33-5.07-1.48-4.47-1.3-7.7-2.31-9.67-3.04-4.99-1.87-8.29-4.03-9.9-6.47-1.61-2.44-2.42-4.99-2.42-7.64,0-2.18.69-4.54,2.07-7.06,1.38-2.52,3.56-4.68,6.55-6.47,2.99-1.79,6.75-2.69,11.27-2.69,5.04,0,9.25.68,12.63,2.03,3.38,1.35,6.65,3.64,9.83,6.86l-7.88,5.23c-3.17-4.11-7.8-6.16-13.88-6.16-3.12,0-5.53.47-7.21,1.4-1.69.94-2.81,1.98-3.35,3.12-.55,1.14-.82,2.16-.82,3.04,0,1.87.73,3.38,2.18,4.52,1.46,1.14,3.61,2.18,6.47,3.12.26.1,2.26.7,6,1.79,2.34.62,4.76,1.33,7.25,2.11,5.46,1.82,9.11,4.13,10.96,6.94,1.84,2.81,2.77,5.51,2.77,8.11,0,2.81-.66,5.49-1.99,8.03-1.33,2.55-3.64,4.67-6.94,6.36-3.3,1.69-7.76,2.54-13.38,2.54-6.97,0-12.47-1.21-16.5-3.63Z"/>
    <path d="M710.84,125.62c3.38,2.68,5.07,6.88,5.07,12.6s-1.68,9.83-5.03,12.48c-3.35,2.65-7.71,4.03-13.06,4.13-1.2.05-7.51.08-18.95.08v23.87h-8.5v-57.17h27.45c5.3,0,9.64,1.34,13.02,4.02ZM692.99,147.34c2.91,0,5.34-.16,7.29-.47,1.95-.31,3.61-1.14,4.99-2.5,1.38-1.35,2.07-3.41,2.07-6.16s-.69-4.81-2.07-6.16c-1.38-1.35-3.04-2.18-4.99-2.5-1.95-.31-4.38-.47-7.29-.47h-14.12v18.25h14.12Z"/>
    <path d="M736.82,175.88c-4.21-2.55-7.41-6.06-9.59-10.53-2.18-4.47-3.28-9.54-3.28-15.21s1.09-10.72,3.28-15.17c2.18-4.45,5.38-7.94,9.59-10.49,4.21-2.55,9.25-3.82,15.13-3.82s10.93,1.27,15.17,3.82c4.24,2.55,7.45,6.04,9.63,10.49,2.18,4.45,3.28,9.5,3.28,15.17s-1.09,10.74-3.28,15.21c-2.18,4.47-5.38,7.98-9.59,10.53-4.21,2.55-9.28,3.82-15.21,3.82s-10.92-1.27-15.13-3.82ZM762.67,168.94c2.83-2.03,4.93-4.69,6.28-7.99,1.35-3.3,2.03-6.9,2.03-10.8s-.68-7.42-2.03-10.72c-1.35-3.3-3.45-5.97-6.28-7.99-2.83-2.03-6.41-3.04-10.72-3.04s-7.83,1.01-10.68,3.04c-2.86,2.03-4.95,4.69-6.28,7.99-1.33,3.3-1.99,6.88-1.99,10.72s.66,7.5,1.99,10.8c1.33,3.3,3.42,5.97,6.28,7.99,2.86,2.03,6.42,3.04,10.68,3.04s7.89-1.01,10.72-3.04Z"/>
    <path d="M835.94,121.6v7.49h-20.43v49.68h-8.5v-49.68h-20.43v-7.49h49.37Z"/>
  </g>
  <g>
    <path class="cls-1" d="M98.04,198.39v-98.1h61.8v14.57h-46.67v68.95h46.67v14.57h-61.8ZM104.91,155.37v-14.58h66.1v14.58h-66.1Z"/>
    <path class="cls-1" d="M184.72,111.78v-11.48h-15.14v98.09h15.14v-54.33c-1.62-1.97-2.88-4.14-3.76-6.5-1.18-3.14-1.77-6.66-1.77-10.56s.84-7.35,2.52-10.63c.84-1.64,1.84-3.17,3.01-4.59ZM173.95,140.79v14.58h3.89v-14.58h-3.89Z"/>
    <path class="cls-1" d="M230.42,172.5c0,2.46-.82,4.64-2.46,6.54-1.64,1.91-3.86,3.4-6.68,4.49-2.81,1.09-5.95,1.64-9.4,1.64-5.63,0-10.49-1.22-14.58-3.67-4-2.41-8.19-6.69-12.55-12.85v-24.54c.51.63,1.05,1.23,1.64,1.82,2.46,2.46,5.5,4.49,9.13,6.13,3.63,1.64,7.9,2.96,12.81,3.96,3.08.55,5.81,1.2,8.18,1.97,2.36.77,4.42,1.65,6.19,2.65,1.78,1,3.23,2.09,4.36,3.27,1.13,1.18,1.97,2.49,2.52,3.95.54,1.46.82,2.99.82,4.63Z"/>
    <path class="cls-1" d="M234.14,149.94c-2.14-1.46-4.57-2.77-7.27-3.93-3.91-1.68-8.36-3.07-13.35-4.16-3.54-.72-6.59-1.56-9.12-2.52-2.55-.96-4.57-2.05-6.07-3.27-1.49-1.22-2.61-2.64-3.33-4.23-.73-1.58-1.09-3.33-1.09-5.25,0-2.63.75-4.92,2.24-6.88,1.5-1.95,3.57-3.47,6.2-4.56,2.64-1.09,5.72-1.64,9.27-1.64,3.08,0,6,.52,8.72,1.56,2.72,1.05,5.22,2.59,7.49,4.63,2.27,2.05,4.32,4.57,6.13,7.57"/>
    <path class="cls-1" d="M184.72,168.59c-.07-.1-.14-.2-.21-.3l-10.08,11.58c2.81,4.08,6.01,7.52,9.6,10.29.23.18.46.35.7.52.02.02.03.03.04.03v-22.05s-.03-.04-.04-.06Z"/>
  </g>
</svg>